<svg xmlns="http://www.w3.org/2000/svg" version="1.1" xmlns:xlink="http://www.w3.org/1999/xlink" viewBox="0 0 200 200"><rect width="200" height="200" fill="url('#gradient')"></rect><defs><linearGradient id="gradient" gradientTransform="rotate(45 0.5 0.5)"><stop offset="0%" stop-color="#42b778"></stop><stop offset="100%" stop-color="#fd0000"></stop></linearGradient></defs><g><g fill="#03d88b" transform="matrix(2.853250773993808,0,0,2.853250773993808,10.08112983995062,121.11639965429394)" stroke="#088edb" stroke-width="0.2"><path d="M9.98 0L9.15-2.66L4.45-2.66L3.63 0L-0.03 0L5.19-14.22L8.41-14.22L13.66 0L9.98 0ZM6.80-10.23L5.27-5.30L8.33-5.30L6.80-10.23ZM17.76-15L17.76-9.43Q18.82-10.76 20.46-10.76L20.46-10.76Q22.21-10.76 23.10-9.73Q23.98-8.69 24.00-6.67L24.00-6.67L24.00 0L20.70 0L20.70-6.59Q20.70-7.43 20.36-7.83Q20.02-8.22 19.20-8.22L19.20-8.22Q18.18-8.22 17.76-7.58L17.76-7.58L17.76 0L14.47 0L14.47-15L17.76-15ZM25.86-10.57L28.95-10.57L29.05-9.33Q30.18-10.76 32.07-10.76L32.07-10.76Q34.07-10.76 34.78-9.17L34.78-9.17Q35.85-10.76 37.88-10.76L37.88-10.76Q41.09-10.76 41.18-6.88L41.18-6.88L41.18 0L37.88 0L37.88-6.67Q37.88-7.48 37.61-7.85Q37.33-8.22 36.61-8.22L36.61-8.22Q35.63-8.22 35.16-7.35L35.16-7.35L35.17-7.22L35.17 0L31.87 0L31.87-6.65Q31.87-7.48 31.60-7.85Q31.34-8.22 30.60-8.22L30.60-8.22Q29.65-8.22 29.15-7.35L29.15-7.35L29.15 0L25.86 0L25.86-10.57ZM52.30 0L49.01 0Q48.84-0.32 48.70-0.95L48.70-0.95Q47.79 0.20 46.16 0.20L46.16 0.20Q44.67 0.20 43.62-0.71Q42.58-1.61 42.58-2.98L42.58-2.98Q42.58-4.70 43.85-5.58Q45.12-6.46 47.54-6.46L47.54-6.46L48.55-6.46L48.55-7.01Q48.55-8.47 47.29-8.47L47.29-8.47Q46.12-8.47 46.12-7.31L46.12-7.31L42.83-7.31Q42.83-8.85 44.14-9.80Q45.44-10.76 47.46-10.76Q49.48-10.76 50.65-9.78Q51.83-8.79 51.86-7.07L51.86-7.07L51.86-2.39Q51.88-0.94 52.30-0.17L52.30-0.17L52.30 0ZM46.95-2.15L46.95-2.15Q47.57-2.15 47.97-2.41Q48.38-2.68 48.55-3.01L48.55-3.01L48.55-4.70L47.60-4.70Q45.88-4.70 45.88-3.15L45.88-3.15Q45.88-2.71 46.18-2.43Q46.48-2.15 46.95-2.15ZM53.26-5.36L53.26-5.36Q53.26-7.87 54.35-9.32Q55.43-10.76 57.37-10.76L57.37-10.76Q58.79-10.76 59.76-9.65L59.76-9.65L59.76-15L63.06-15L63.06 0L60.10 0L59.93-1.13Q58.92 0.20 57.35 0.20L57.35 0.20Q55.47 0.20 54.37-1.25Q53.26-2.70 53.26-5.36ZM56.56-5.76L56.55-5.16Q56.55-2.34 58.19-2.34L58.19-2.34Q59.29-2.34 59.76-3.26L59.76-3.26L59.76-7.29Q59.31-8.22 58.21-8.22L58.21-8.22Q56.69-8.22 56.56-5.76L56.56-5.76Z"></path></g></g></svg>